<svg width="51"
     height="51"
     viewBox="0 0 51 51"
     fill="none"
     xmlns="http://www.w3.org/2000/svg">
  <path fill-rule="evenodd"
        clip-rule="evenodd"
        d="M15.9888 11.0425C17.6929 8.34805 20.7253 6 25.5 6C30.2746 6 33.3071 8.34805 35.0112 11.0425C36.6467 13.6285 37.1543 16.624 37.1543 18.6126H40.4091C42.0632 18.6126 43.2933 19.9668 42.9388 21.3973L37.824 42.0362C37.5633 43.0882 36.5108 43.8378 35.2944 43.8378H15.7056C14.4892 43.8378 13.4367 43.0882 13.176 42.0362L8.06122 21.3973C7.7067 19.9668 8.93685 18.6126 10.5909 18.6126H13.8457C13.8457 16.624 14.3533 13.6285 15.9888 11.0425ZM30.4919 13.2834C31.5758 14.9972 31.9746 17.1614 31.9746 18.6126H19.0254C19.0254 17.1614 19.4242 14.9972 20.5081 13.2834C21.5233 11.6782 23.0231 10.5864 25.5 10.5864C27.9769 10.5864 29.4766 11.6782 30.4919 13.2834Z"
        fill="white"
        stroke="#040403" />
  <path d="M20.0446 35.6021C20.567 25.4938 23.2161 23.4168 28.1569 23.3726C30.0746 23.8035 32.8801 25.338 32.6562 32.3654C31.4866 31.9617 28.9796 31.9098 28.0931 34.7842C26.5657 36.9098 27.19 38.233 27.6937 38.4234C28.0914 38.3722 28.2542 36.0911 28.2727 34.9251C28.7054 33.5118 30.3029 31.1733 33.2307 33.1255C33.6419 33.5351 34.2043 34.7842 34.0247 36.6392C33.7285 38.2041 33.6802 38.4159 30.669 40.4711C30.1959 40.668 29.5453 40.0732 29.5453 38.3019C29.1689 40.7109 26.8682 41.0861 25.9136 40.0233C25.084 40.875 23.2824 39.9579 23.5494 37.2864C23.2389 38.4554 22.4431 40.2163 20.3825 40.7076C20.0404 40.6211 15.7696 41.6654 14.9403 35.9668C14.4368 35.9077 15.7178 24.1866 21.2636 27.012C17.3954 33.5943 20.0319 35.8479 20.0446 35.6021Z"
        fill="#FFF057" />
  <path d="M23.4546 33.5321C23.4546 33.2223 23.4655 33.0068 23.8154 32.7104C24.1666 32.7685 24.1117 33.6273 23.9557 33.7706C23.6404 34.0602 23.4546 33.6023 23.4546 33.5321Z"
        fill="#040403" />
  <path fill-rule="evenodd"
        clip-rule="evenodd"
        d="M23.7897 32.685C23.7984 32.6776 23.8103 32.6744 23.8219 32.6763C23.9279 32.6938 23.9981 32.7713 24.0422 32.8672C24.0865 32.9635 24.1081 33.0854 24.1136 33.2076C24.119 33.3302 24.1083 33.4556 24.0861 33.56C24.075 33.6122 24.0609 33.6599 24.0441 33.6997C24.0276 33.7388 24.0073 33.7732 23.9822 33.7962L23.9822 33.7962C23.8987 33.8729 23.8181 33.9051 23.742 33.9011C23.6667 33.897 23.6053 33.8578 23.5588 33.8106C23.512 33.7632 23.4769 33.7047 23.4535 33.6541C23.4418 33.6287 23.4327 33.6048 23.4265 33.5845C23.4206 33.5652 23.4165 33.5465 23.4165 33.5326C23.4165 33.3782 23.419 33.2414 23.4676 33.1057C23.5167 32.9689 23.6113 32.836 23.7897 32.685ZM23.8262 32.7495C23.6644 32.8894 23.5823 33.0089 23.5396 33.1279C23.4954 33.2514 23.4924 33.3773 23.4924 33.5326C23.4924 33.5363 23.494 33.5473 23.4996 33.5653C23.5048 33.5824 23.5127 33.6035 23.5233 33.6264C23.5446 33.6724 23.5756 33.7234 23.6147 33.7631C23.654 33.8029 23.6982 33.8282 23.7464 33.8308C23.7939 33.8333 23.8547 33.8142 23.9289 33.7461C23.9428 33.7333 23.9584 33.7095 23.9734 33.674C23.9881 33.6391 24.0011 33.5957 24.0116 33.5464C24.0326 33.4477 24.043 33.3278 24.0377 33.2105C24.0325 33.0929 24.0117 32.9803 23.9724 32.8948C23.9363 32.8162 23.8875 32.7663 23.8262 32.7495Z"
        fill="#040403" />
  <path d="M29.4727 37.137C29.4727 36.9563 29.4781 36.8306 29.6531 36.6577C29.8287 36.6916 29.8012 37.1926 29.7232 37.2762C29.5655 37.4451 29.4727 37.178 29.4727 37.137Z"
        fill="#040403" />
  <path fill-rule="evenodd"
        clip-rule="evenodd"
        d="M29.584 36.5976C29.6067 36.5752 29.6402 36.5654 29.6725 36.5717C29.7665 36.5898 29.8143 36.666 29.8383 36.7268C29.864 36.792 29.8753 36.8706 29.8782 36.9453C29.8811 37.0209 29.8755 37.0984 29.8635 37.1638C29.8576 37.1965 29.8498 37.2278 29.8399 37.2551C29.8307 37.2805 29.817 37.3104 29.7951 37.3339L29.7951 37.3339C29.7461 37.3864 29.6843 37.4239 29.6113 37.4194C29.5412 37.415 29.4928 37.3734 29.4643 37.3397C29.4346 37.3046 29.4139 37.2634 29.4007 37.2303C29.394 37.2133 29.3887 37.1969 29.3849 37.1826C29.3817 37.1702 29.3779 37.1532 29.3779 37.1371C29.3779 37.0478 29.3788 36.9595 29.4062 36.8704C29.4343 36.7787 29.4884 36.6921 29.584 36.5976ZM29.6601 36.7871C29.6223 36.8352 29.6012 36.8777 29.5886 36.9187C29.5697 36.9802 29.5677 37.0442 29.5676 37.134C29.5678 37.1351 29.5683 37.1374 29.5693 37.1411C29.5712 37.1485 29.5744 37.1584 29.5788 37.1695C29.588 37.1927 29.6004 37.2155 29.6136 37.2311C29.6183 37.2367 29.6219 37.24 29.6244 37.242C29.6294 37.2392 29.6383 37.2329 29.651 37.2194C29.651 37.2194 29.651 37.2194 29.651 37.2194C29.6509 37.2193 29.6546 37.214 29.66 37.1991C29.6659 37.1829 29.6716 37.161 29.6765 37.1345C29.6862 37.0814 29.6911 37.0159 29.6886 36.9515C29.6861 36.8863 29.6763 36.8281 29.6601 36.7872C29.6601 36.7872 29.6601 36.7871 29.6601 36.7871ZM29.6194 37.2441C29.6194 37.244 29.6197 37.2439 29.6203 37.2439C29.6197 37.2441 29.6194 37.2441 29.6194 37.2441Z"
        fill="#040403" />
  <g filter="url(#filter0_d)">
    <path fill-rule="evenodd"
          clip-rule="evenodd"
          d="M20.177 26.0403C20.9383 26.1662 21.4577 26.5983 21.7094 26.9807L20.8999 27.4393C20.7714 27.2441 20.4715 26.983 20.0105 26.9067C19.562 26.8325 18.8797 26.9208 17.9583 27.562C17.4482 27.917 16.8714 28.7642 16.38 29.9505C15.8979 31.1147 15.5283 32.5317 15.3832 33.9425C15.2376 35.3577 15.3212 36.7345 15.716 37.8335C16.1082 38.9249 16.7891 39.7028 17.8266 40.0305C18.9668 40.3906 19.8404 40.3666 20.5114 40.1558C21.1855 39.9442 21.7051 39.5283 22.1037 39.0252C22.5041 38.5198 22.7723 37.9385 22.9401 37.4283C22.9727 37.3293 23.0011 37.2343 23.0256 37.1443C23.0335 36.9897 23.0454 36.8477 23.0589 36.7235C23.0819 36.5126 23.1121 36.3314 23.1433 36.2204C23.1505 36.1947 23.1637 36.1508 23.1855 36.1063C23.1937 36.0896 23.2208 36.0346 23.275 35.98C23.316 35.9387 23.5337 35.75 23.8289 35.8769C23.939 35.9243 24.0002 35.9971 24.0282 36.0368C24.0581 36.0789 24.0741 36.1171 24.0823 36.1392C24.0987 36.1833 24.1049 36.2215 24.1076 36.2403C24.1134 36.2818 24.1145 36.3233 24.1145 36.3556C24.1145 36.5514 24.0697 36.8793 23.9694 37.269C23.9567 37.5925 23.964 37.9671 24.0136 38.3347C24.0913 38.9114 24.2622 39.3873 24.5334 39.6557C24.6591 39.78 24.8065 39.8606 24.9924 39.8925C25.1845 39.9254 25.451 39.9116 25.8167 39.7915L26.1331 40.6212C25.6557 40.7779 25.217 40.8258 24.8203 40.7579C24.4175 40.689 24.0927 40.5063 23.8414 40.2576C23.5173 39.9369 23.3198 39.5116 23.1994 39.0771C23.0993 39.2362 22.9891 39.3936 22.868 39.5464C22.3846 40.1564 21.7174 40.7062 20.8155 40.9894C19.9106 41.2736 18.8192 41.2736 17.5209 40.8636C16.1199 40.4211 15.2703 39.3759 14.8161 38.1118C14.3647 36.8551 14.2861 35.3439 14.4389 33.8589C14.5921 32.3696 14.9812 30.8744 15.4946 29.6349C15.9988 28.4175 16.6541 27.3694 17.3892 26.858L17.3892 26.858C18.46 26.1128 19.4031 25.9123 20.177 26.0403ZM24.0626 36.4378C24.0625 36.438 24.0623 36.4388 24.0618 36.4402C24.0624 36.4384 24.0626 36.4376 24.0626 36.4378Z"
          fill="#040403" />
  </g>
  <path fill-rule="evenodd"
        clip-rule="evenodd"
        d="M28.7445 34.3222L28.7445 34.3222L28.4051 34.9519C28.3102 34.9079 28.2282 34.8446 28.1658 34.7919C28.1007 34.7369 28.0335 34.6729 27.9721 34.6144C27.8417 34.4901 27.7202 34.3748 27.5881 34.2846C27.458 34.1957 27.3454 34.1512 27.2421 34.1441C27.1481 34.1376 27.0155 34.1585 26.8315 34.286C26.6169 34.4348 26.3469 34.8165 26.1085 35.3899C25.8774 35.9456 25.6996 36.6242 25.6298 37.2996C25.5597 37.9785 25.6014 38.6286 25.7857 39.1395C25.9678 39.6442 26.2746 39.9821 26.7263 40.1242C27.2601 40.2921 27.6543 40.2767 27.9467 40.1853C28.2416 40.093 28.4729 39.9109 28.6547 39.6824C28.838 39.452 28.9629 39.184 29.0417 38.9453C29.0553 38.9039 29.0674 38.8642 29.0779 38.8266C29.0819 38.7539 29.0876 38.6871 29.094 38.6282C29.1055 38.5234 29.1212 38.4265 29.1394 38.3619C29.1435 38.3474 29.1526 38.3167 29.1686 38.284C29.1745 38.272 29.1956 38.229 29.2385 38.1861C29.2712 38.1533 29.4442 38.004 29.6789 38.1046C29.7666 38.1422 29.8154 38.2 29.8378 38.2315C29.8615 38.2649 29.8742 38.295 29.8806 38.3122C29.8933 38.3464 29.898 38.3755 29.8998 38.3885C29.904 38.4177 29.9045 38.445 29.9045 38.4629C29.9045 38.5692 29.8816 38.7348 29.8329 38.9268C29.8276 39.0751 29.8315 39.2449 29.8539 39.4105C29.8909 39.6837 29.9696 39.879 30.0692 39.9773C30.1111 40.0185 30.1558 40.0422 30.2134 40.052C30.276 40.0627 30.38 40.0612 30.5418 40.0083L30.794 40.6723C30.5431 40.7543 30.3019 40.7829 30.0763 40.7444C29.8457 40.7051 29.6593 40.6004 29.5166 40.4598C29.4093 40.354 29.3282 40.2296 29.2669 40.0985C29.2663 40.0991 29.2658 40.0998 29.2653 40.1005C29.0154 40.4146 28.6657 40.7033 28.1891 40.8524C27.7102 41.0022 27.1425 40.9986 26.4826 40.791C25.7407 40.5576 25.2983 40.0067 25.0661 39.3629C24.8361 38.7254 24.7985 37.9674 24.8744 37.2324C24.9507 36.4939 25.1443 35.7527 25.4005 35.1365C25.6493 34.538 25.9825 33.9957 26.3774 33.722L26.3774 33.722C26.681 33.5115 26.991 33.4207 27.2987 33.442C27.597 33.4627 27.8449 33.5857 28.038 33.7176C28.2228 33.8438 28.3827 33.9963 28.5036 34.1116C28.5077 34.1155 28.5118 34.1195 28.5159 34.1233C28.5809 34.1852 28.6316 34.2333 28.6766 34.2713C28.7234 34.3108 28.7438 34.3218 28.7445 34.3222ZM29.1456 38.4604C29.1456 38.4603 29.1456 38.4607 29.1456 38.4617C29.1456 38.4609 29.1456 38.4605 29.1456 38.4604ZM26.6028 34.002L26.603 34.0022L26.6028 34.002Z"
        fill="#040403" />
  <path d="M33.4161 38.2817C32.5808 39.3507 31.5912 40.4628 30.7453 40.671L30.5415 40.0291C31.2282 39.7447 32.8533 38.5163 33.4161 38.2817Z"
        fill="#040403" />
  <path fill-rule="evenodd"
        clip-rule="evenodd"
        d="M33.4731 38.2383L33.4314 38.2917C33.0136 38.8264 32.5568 39.3725 32.0982 39.811C31.6403 40.2491 31.1784 40.5822 30.7501 40.6876L30.7322 40.692L30.5186 40.019L30.5337 40.0127C30.8749 39.8714 31.4509 39.4946 32.0142 39.122C32.0436 39.1026 32.073 39.0831 32.1024 39.0637C32.3531 38.8978 32.5983 38.7355 32.8154 38.5988C33.0575 38.4463 33.2658 38.3247 33.4082 38.2653L33.4731 38.2383ZM30.5643 40.0385L30.7582 40.6491C31.1709 40.5415 31.6203 40.2176 32.071 39.7865C32.5114 39.3653 32.9509 38.8438 33.3561 38.3279C33.2216 38.3925 33.0423 38.4984 32.8367 38.6279C32.62 38.7644 32.3752 38.9264 32.1244 39.0924C32.0951 39.1118 32.0657 39.1312 32.0362 39.1507C31.4827 39.5168 30.9115 39.8908 30.5643 40.0385Z"
        fill="#040403" />
  <path fill-rule="evenodd"
        clip-rule="evenodd"
        d="M27.0885 36.7227C27.208 36.0104 27.5575 35.1587 28.2401 34.2539L28.5762 34.4084C28.448 34.7807 28.3778 35.2671 28.3339 35.7831C28.3043 36.1307 28.2871 36.4826 28.2709 36.816C28.263 36.9777 28.2553 37.1351 28.2465 37.2855C28.2332 37.5135 28.2174 37.7251 28.194 37.9061C28.1711 38.084 28.1394 38.2452 28.0895 38.3659C28.0646 38.4261 28.0302 38.4888 27.979 38.5387C27.9241 38.5924 27.8463 38.6338 27.7491 38.6335C27.6592 38.6332 27.5819 38.5969 27.5213 38.5554C27.4597 38.5132 27.4002 38.4553 27.3418 38.3869L27.3369 38.3812L27.3326 38.3752C27.0752 38.0171 26.9701 37.4287 27.0885 36.7227ZM27.6441 38.174C27.4618 37.9153 27.3538 37.4304 27.4634 36.7768C27.5365 36.3415 27.7051 35.8396 28.0034 35.2964C27.9843 35.4474 27.9688 35.6014 27.9556 35.7554C27.9256 36.1087 27.9078 36.4717 27.8914 36.8083C27.8836 36.9683 27.8761 37.1223 27.8677 37.2665C27.8545 37.4925 27.8391 37.695 27.8173 37.8642C27.7951 38.0366 27.7676 38.1617 27.7353 38.2398C27.7325 38.2464 27.7299 38.2524 27.7274 38.2577C27.7056 38.2399 27.6779 38.2131 27.6441 38.174ZM27.7661 38.2834C27.7661 38.2834 27.766 38.2834 27.7659 38.2833C27.766 38.2834 27.7661 38.2834 27.7661 38.2834Z"
        fill="#040403" />
  <path d="M33.4774 38.2083C33.4774 38.2083 33.4686 36.8335 33.5097 36.6097C33.5509 36.3858 34.2248 36.6206 34.2248 36.7079C34.2248 36.7953 33.9088 37.7212 33.4774 38.2083Z"
        fill="#040403" />
  <path fill-rule="evenodd"
        clip-rule="evenodd"
        d="M33.5633 36.5604C33.5449 36.5726 33.5327 36.5893 33.5284 36.6126C33.5184 36.6671 33.5112 36.7936 33.5062 36.9544C33.5012 37.1146 33.4985 37.3073 33.497 37.4931C33.4955 37.6788 33.4953 37.8576 33.4955 37.99C33.4956 38.0562 33.4958 38.1107 33.496 38.1487C33.496 38.1521 33.496 38.1552 33.496 38.1583C33.6959 37.919 33.8695 37.5886 33.9952 37.3016C34.0615 37.1504 34.1143 37.0117 34.1505 36.9054C34.1686 36.8523 34.1825 36.8074 34.1919 36.7732C34.2015 36.7381 34.2057 36.7163 34.2057 36.708C34.2057 36.7076 34.2055 36.7052 34.2017 36.7002C34.198 36.6954 34.192 36.6896 34.1835 36.683C34.1665 36.6698 34.1413 36.655 34.11 36.6399C34.0476 36.6098 33.9634 36.5797 33.8779 36.5592C33.792 36.5386 33.7066 36.5281 33.6412 36.5358C33.6085 36.5396 33.5822 36.5478 33.5633 36.5604ZM33.4773 38.2083L33.4583 38.2084L33.4586 38.2571L33.4919 38.2195C33.7095 37.9739 33.8972 37.6186 34.0304 37.3149C34.097 37.1628 34.1502 37.0232 34.1867 36.9161C34.2049 36.8625 34.2191 36.8169 34.2287 36.7819C34.238 36.7477 34.2437 36.7215 34.2437 36.708C34.2437 36.6974 34.2387 36.6878 34.2326 36.6798C34.2264 36.6717 34.2178 36.6637 34.2078 36.656C34.1879 36.6405 34.1601 36.6244 34.1275 36.6087C34.0623 36.5772 33.9754 36.5462 33.8874 36.5251C33.7996 36.504 33.7088 36.4923 33.6364 36.5008C33.6001 36.5051 33.567 36.5146 33.5412 36.5317C33.5149 36.5492 33.497 36.574 33.491 36.6067C33.4804 36.6642 33.4732 36.7934 33.4683 36.9534C33.4633 37.1139 33.4605 37.3069 33.4591 37.4928C33.4576 37.6787 33.4574 37.8576 33.4576 37.99C33.4577 38.0562 33.4578 38.1108 33.458 38.1489C33.4581 38.1679 33.4582 38.1828 33.4582 38.1929L33.4583 38.2084C33.4583 38.2084 33.4583 38.2084 33.4773 38.2083Z"
        fill="#040403" />
  <path fill-rule="evenodd"
        clip-rule="evenodd"
        d="M28.022 34.0834C28.7062 32.8759 29.8639 31.7533 31.5445 31.9258C32.9289 32.0679 33.6663 32.9505 34.0159 33.9206C34.361 34.878 34.3545 35.9708 34.2436 36.7048L33.4921 36.607C33.5928 35.9408 33.5924 34.9655 33.2963 34.1439C33.0047 33.335 32.4538 32.7275 31.4611 32.6256C30.259 32.5022 29.3319 33.2845 28.6937 34.411L28.022 34.0834Z"
        fill="#040403" />
  <path fill-rule="evenodd"
        clip-rule="evenodd"
        d="M20.8856 27.0038C22.282 24.5306 24.5718 22.6381 27.7913 22.97L27.7389 23.4073L27.7913 22.97C30.4693 23.246 31.8906 24.9713 32.5706 26.9133C33.2457 28.8412 33.2259 31.0537 33.0035 32.5308L32.0641 32.4091C32.2741 31.014 32.2849 28.9456 31.6685 27.1853C31.057 25.4391 29.8647 24.0692 27.6865 23.8446L27.6865 23.8446C25.0177 23.5695 23.0302 25.1011 21.7248 27.4141C21.4085 27.9745 21.2123 28.8027 21.0903 29.7634C20.9695 30.7145 20.9266 31.7444 20.8882 32.6869L20.886 32.7422C20.8492 33.6457 20.8147 34.492 20.7065 35.0572C20.6783 35.205 20.6428 35.3462 20.5959 35.4714C20.551 35.5915 20.4847 35.727 20.378 35.8387C20.2613 35.961 20.0833 36.0652 19.8524 36.0628C19.6441 36.0606 19.4744 35.9713 19.3542 35.8847L19.3111 35.8536L19.2767 35.8143C18.6869 35.139 18.5571 34.2076 18.6262 33.2838C18.6963 32.3478 18.9769 31.3352 19.3095 30.4143C19.6435 29.4898 20.0373 28.638 20.3466 28.0188C20.5015 27.7087 20.6358 27.4557 20.7317 27.2796C20.7797 27.1916 20.8181 27.1227 20.8447 27.0755C20.8581 27.0519 20.8684 27.0337 20.8756 27.0212C20.8792 27.015 20.8819 27.0101 20.8839 27.0068L20.8856 27.0038ZM20.0041 31.2983C19.7838 31.9963 19.6207 32.7013 19.5725 33.3447C19.5258 33.9689 19.5904 34.4907 19.7753 34.8888C19.8692 34.3865 19.9018 33.5992 19.9403 32.6537C19.9579 32.2226 19.9767 31.7642 20.0041 31.2983ZM27.7389 23.4073L27.7389 23.4073Z"
        fill="#040403" />
  <defs>
    <filter id="filter0_d"
            x="14.3677"
            y="25.5044"
            width="12.7655"
            height="16.1846"
            filterUnits="userSpaceOnUse"
            color-interpolation-filters="sRGB">
      <feFlood flood-opacity="0"
               result="BackgroundImageFix" />
      <feColorMatrix in="SourceAlpha"
                     type="matrix"
                     values="0 0 0 0 0 0 0 0 0 0 0 0 0 0 0 0 0 0 127 0"
                     result="hardAlpha" />
      <feOffset dx="0.5" />
      <feGaussianBlur stdDeviation="0.25" />
      <feColorMatrix type="matrix"
                     values="0 0 0 0 0 0 0 0 0 0 0 0 0 0 0 0 0 0 0.25 0" />
      <feBlend mode="normal"
               in2="BackgroundImageFix"
               result="effect1_dropShadow" />
      <feBlend mode="normal"
               in="SourceGraphic"
               in2="effect1_dropShadow"
               result="shape" />
    </filter>
  </defs>
</svg>