<svg width="50"
     height="50"
     viewBox="0 0 50 50"
     fill="none"
     xmlns="http://www.w3.org/2000/svg">
  <path fill-rule="evenodd"
        clip-rule="evenodd"
        d="M23.7623 14.6347C20.8146 11.5183 16.0933 11.0375 12.9128 13.8869C9.23316 17.1885 9.0398 23.1141 12.3327 26.6929L25.0004 39L37.6623 26.6929C40.9611 23.1141 40.7677 17.1885 37.0881 13.8869C33.9075 11.0375 29.192 11.5183 26.2387 14.6348C26.2105 14.6645 26.1825 14.6944 26.1547 14.7246L25.0004 15.9751L23.8462 14.7246C23.8184 14.6944 23.7904 14.6644 23.7623 14.6347ZM35.901 15.2707C33.5082 13.1281 29.8317 13.4196 27.4644 15.9875L25.0004 18.6567L22.5353 15.9862C20.1747 13.4205 16.4929 13.1275 14.0994 15.2711C11.2126 17.8619 11.037 22.5577 13.6112 25.3959L25.0001 36.4606L36.3843 25.3954C38.9637 22.5574 38.7884 17.8615 35.901 15.2707Z"
        fill="#040403" />
</svg>