<svg width="40"
     height="40"
     viewBox="0 0 40 40"
     fill="none"
     xmlns="http://www.w3.org/2000/svg">
  <path fill-rule="evenodd"
        clip-rule="evenodd"
        d="M18.3497 5.51294C14.4194 1.35769 8.1244 0.716694 3.8837 4.51588C-1.02246 8.91801 -1.28027 16.8189 3.11027 21.5906L20.0006 38L36.8831 21.5906C41.2814 16.8189 41.0236 8.91801 36.1175 4.51588C31.8767 0.716658 25.5893 1.35771 21.6516 5.51306C21.614 5.55267 21.5767 5.5926 21.5396 5.63284L20.0006 7.30007L18.4615 5.63284C18.4245 5.59256 18.3872 5.55259 18.3497 5.51294ZM34.5347 6.36099C31.3443 3.50416 26.4423 3.89278 23.2858 7.31669L20.0006 10.8756L16.7137 7.31491C13.5662 3.89402 8.65718 3.50327 5.46589 6.36152C1.61678 9.81582 1.38271 16.077 4.81492 19.8612L20.0002 34.6141L35.1791 19.8606C38.6183 16.0765 38.3845 9.81529 34.5347 6.36099Z"
        fill="#040403" />
</svg>