<svg width="40"
     height="40"
     viewBox="0 0 40 40"
     fill="none"
     xmlns="http://www.w3.org/2000/svg">
  <path fill-rule="evenodd"
        clip-rule="evenodd"
        d="M19.6086 2.8159C19.9157 2.53831 20.3715 2.54008 20.6766 2.82005L39.2789 19.887C39.4478 20.0419 39.4646 20.3106 39.3165 20.4872L20.1403 3.45956L1.25505 20.5286C1.08512 20.6822 0.828328 20.6626 0.681487 20.4849C0.534647 20.3071 0.553365 20.0385 0.723296 19.8849L6.35693 14.7931V6.63857C6.35693 6.40366 6.539 6.21323 6.76358 6.21323H10.5047C10.7293 6.21323 10.9114 6.40366 10.9114 6.63857V10.6766L19.6086 2.8159ZM10.0981 11.4117V7.0639H7.17023V14.058L10.0981 11.4117ZM19.6205 7.00662C19.9239 6.74334 20.3641 6.74557 20.6651 7.01193L34.5344 19.2868C34.717 19.4484 34.8223 19.6859 34.8223 19.9362V36.5396C34.8223 37.0094 34.4582 37.3903 34.009 37.3903H24.0461C23.597 37.3903 23.2328 37.0094 23.2328 36.5396V28.3732H17.0111V36.5396C17.0111 37.0094 16.647 37.3903 16.1978 37.3903H5.99095C5.54178 37.3903 5.17765 37.0094 5.17765 36.5396L5.47167 19.284L19.6205 7.00662ZM20.1397 7.66132L5.99095 19.9387V36.5396H16.1978V28.3732C16.1978 27.9034 16.5619 27.5225 17.0111 27.5225H23.2328C23.682 27.5225 24.0461 27.9034 24.0461 28.3732V36.5396H34.009V19.9362L20.1397 7.66132Z"
        fill="#040403" />
  <path fill-rule="evenodd"
        clip-rule="evenodd"
        d="M19.2277 2.35529C19.7548 1.87888 20.5371 1.88192 21.0608 2.3624L39.6631 19.4294C40.0738 19.8062 40.1147 20.4599 39.7545 20.8894C39.737 20.9102 39.7183 20.9297 39.6983 20.9478C38.7671 21.793 37.5962 21.8237 36.6437 21.5886C36.2009 21.4792 35.7761 21.3061 35.4049 21.1041V36.54C35.4049 37.3464 34.7799 38 34.009 38H24.0462C23.2753 38 22.6503 37.3464 22.6503 36.54V28.9829H17.5937V36.54C17.5937 37.3464 16.9687 38 16.1978 38H5.99096C5.22007 38 4.59514 37.3464 4.59514 36.54V36.5292L4.59524 36.5292L4.86438 20.7333C4.49662 21.0395 4.07377 21.3326 3.6211 21.5459C3.11524 21.7842 2.53534 21.9401 1.93565 21.8664C1.3226 21.7911 0.743578 21.4821 0.248678 20.8931C0.246017 20.89 0.24337 20.8868 0.240738 20.8836C-0.116451 20.4513 -0.0709177 19.7979 0.342437 19.4243L0.72331 19.8853L0.342439 19.4243L5.77442 14.5147V6.63897C5.77442 6.06756 6.21729 5.60434 6.7636 5.60434H10.5048C11.0511 5.60434 11.4939 6.06756 11.4939 6.63897V9.34529L19.2277 2.35529ZM2.01448 20.6479C2.03357 20.6511 2.05259 20.6538 2.07156 20.6562C2.3952 20.6959 2.75735 20.6163 3.14265 20.4348C3.92397 20.0667 4.64761 19.3523 5.03 18.8871C5.05129 18.8612 5.07462 18.8373 5.09974 18.8155L19.2485 6.5381C19.7693 6.08623 20.5249 6.09008 21.0414 6.54721L34.9107 18.822C35.1512 19.0349 35.3136 19.3246 35.3761 19.6419C35.6878 19.9091 36.2582 20.2413 36.9114 20.4026C37.4031 20.524 37.8847 20.5361 38.3103 20.3934L20.1437 4.26219L2.01448 20.6479ZM7.75277 12.7267L9.51559 11.1334V7.6736H7.75277V12.7267ZM6.57349 20.2253V35.9307H15.6153V28.3736C15.6153 27.5673 16.2402 26.9136 17.0111 26.9136H23.2329C24.0037 26.9136 24.6287 27.5673 24.6287 28.3736V35.9307H33.4265V20.2192L20.1361 8.4566L6.57349 20.2253Z"
        fill="#040403" />
</svg>