<svg width="50" height="50" viewBox="0 0 50 50" fill="none" xmlns="http://www.w3.org/2000/svg">
<path fill-rule="evenodd" clip-rule="evenodd" d="M24.9918 26.9574C30.4252 26.9574 34.2281 23.3037 34.2281 19.4787C34.2281 15.6537 30.4252 12 24.9918 12C19.5583 12 15.7554 15.6537 15.7554 19.4787C15.7554 23.3037 19.5583 26.9574 24.9918 26.9574ZM24.9918 28.9574C31.1974 28.9574 36.2281 24.7136 36.2281 19.4787C36.2281 14.2437 31.1974 10 24.9918 10C18.7861 10 13.7554 14.2437 13.7554 19.4787C13.7554 24.7136 18.7861 28.9574 24.9918 28.9574Z" fill="black"/>
<path fill-rule="evenodd" clip-rule="evenodd" d="M30.1883 26.1113L30.4455 26.1581C34.708 26.9337 37.2677 27.9955 38.8037 29.0861C40.3729 30.2003 40.8851 31.3571 40.9924 32.2166L41.0001 32.2783V36.9185L40.4801 37.2031C27.9128 44.0797 14.6294 40.0712 9.51922 37.1974L9.00939 36.9107V32.4291C8.97667 32.167 9.03596 31.9413 9.08738 31.7991C9.15705 31.6065 9.26019 31.435 9.35872 31.2944C9.55749 31.0108 9.83565 30.7157 10.1452 30.429C10.7726 29.8479 11.6529 29.1877 12.6497 28.5672C14.602 27.3519 17.2377 26.1417 19.4794 26.142L19.6816 26.142L19.8679 26.2206C22.0619 27.1458 24.5581 27.1619 26.5695 26.9161C27.5649 26.7944 28.4168 26.6117 29.0179 26.4599C29.3179 26.3842 29.5541 26.3165 29.7127 26.2686C29.792 26.2446 29.8518 26.2256 29.8904 26.2131L29.9323 26.1994L29.9409 26.1965L29.942 26.1961L30.1883 26.1113ZM30.3313 28.1709C30.3183 28.1748 30.3049 28.1789 30.291 28.1831C30.1059 28.239 29.8401 28.3151 29.5076 28.3991C28.8435 28.5667 27.9076 28.7674 26.8122 28.9013C24.6967 29.1599 21.8902 29.1817 19.2918 28.1459C17.6527 28.2131 15.5125 29.141 13.7067 30.2651C12.7896 30.836 12.0171 31.4213 11.5043 31.8963C11.2565 32.1257 11.0963 32.3048 11.0094 32.4242V35.7293C16.0202 38.3281 27.7988 41.5614 39.0001 35.7262V32.4126C38.9526 32.1376 38.7383 31.4926 37.6458 30.7169C36.4684 29.8808 34.2947 28.9145 30.3313 28.1709Z" fill="black"/>
</svg>
