<svg width="50"
     height="50"
     viewBox="0 0 50 50"
     fill="none"
     xmlns="http://www.w3.org/2000/svg">
  <path fill-rule="evenodd"
        clip-rule="evenodd"
        d="M25 37.942C32.2487 37.942 38.125 32.104 38.125 24.9024C38.125 17.7008 32.2487 11.8628 25 11.8628C17.7513 11.8628 11.875 17.7008 11.875 24.9024C11.875 32.104 17.7513 37.942 25 37.942ZM25 39.8048C33.2843 39.8048 40 33.1328 40 24.9024C40 16.672 33.2843 10 25 10C16.7157 10 10 16.672 10 24.9024C10 33.1328 16.7157 39.8048 25 39.8048Z"
        fill="#040403" />
  <path fill-rule="evenodd"
        clip-rule="evenodd"
        d="M25 27.3674C28.1493 27.3674 30.625 24.9027 30.625 21.9559C30.625 19.0092 28.1493 16.5444 25 16.5444C21.8507 16.5444 19.375 19.0092 19.375 21.9559C19.375 24.9027 21.8507 27.3674 25 27.3674ZM25 29.2302C29.1421 29.2302 32.5 25.9734 32.5 21.9559C32.5 17.9385 29.1421 14.6816 25 14.6816C20.8579 14.6816 17.5 17.9385 17.5 21.9559C17.5 25.9734 20.8579 29.2302 25 29.2302Z"
        fill="#040403" />
  <path fill-rule="evenodd"
        clip-rule="evenodd"
        d="M21.2227 26.6411L21.6614 26.915C22.6946 27.5601 24.0518 27.7289 25.4235 27.6206C26.784 27.5132 28.0368 27.1423 28.7486 26.845L29.121 26.6894L29.4906 26.8516C29.5886 26.8946 29.7288 26.9549 29.9002 27.0286C30.7551 27.3965 32.3851 28.0978 33.4175 28.6443C34.0221 28.9643 34.5483 29.2773 34.9618 29.6647C35.4042 30.0792 35.6892 30.5504 35.8693 31.137L35.9101 31.2698V35.3914L35.5415 35.671C35.5006 35.7021 35.4585 35.734 35.4153 35.7668C33.6429 37.1134 29.9724 39.9019 25.3669 39.9978C22.9837 40.0475 20.6474 39.3053 18.7391 38.3995C16.8294 37.4929 15.2717 36.3858 14.4286 35.6168L14.0796 35.2984L14.1306 34.8304C14.1604 34.5577 14.1411 34.1117 14.1155 33.5178C14.1135 33.4717 14.1114 33.4248 14.1094 33.377C14.0837 32.7765 14.0567 32.0486 14.133 31.4653C14.2459 30.602 14.8112 29.989 15.3065 29.6005C15.8035 29.2107 16.3563 28.9463 16.7234 28.7931L21.2227 26.6411ZM21.1283 28.7537L17.4916 30.4931L17.4681 30.5028C17.1728 30.6249 16.7838 30.8151 16.4684 31.0625C16.1402 31.32 16.0138 31.5412 15.9924 31.7053C15.9407 32.1006 15.9555 32.6621 15.9827 33.2979C15.9853 33.3578 15.988 33.4189 15.9908 33.4809C16.006 33.8225 16.0224 34.1913 16.0198 34.5237C16.7807 35.1504 18.0314 35.999 19.5474 36.7187C21.3044 37.5527 23.3412 38.1768 25.3276 38.1354C29.0859 38.0572 32.1918 35.8589 34.0351 34.4695V31.56C33.9495 31.3313 33.8388 31.1731 33.6753 31.0199C33.4557 30.8141 33.1195 30.5973 32.5358 30.2883C31.582 29.7834 30.0646 29.1299 29.1929 28.7545C29.1587 28.7398 29.1254 28.7255 29.0933 28.7116C28.209 29.0365 26.9402 29.3696 25.572 29.4776C24.1606 29.589 22.5427 29.4684 21.1283 28.7537Z"
        fill="#040403" />
</svg>