<svg width="40"
     height="40"
     viewBox="0 0 40 40"
     fill="none"
     xmlns="http://www.w3.org/2000/svg">
  <path fill-rule="evenodd"
        clip-rule="evenodd"
        d="M20 35.5304C28.6985 35.5304 35.75 28.5248 35.75 19.8829C35.75 11.241 28.6985 4.23536 20 4.23536C11.3015 4.23536 4.25 11.241 4.25 19.8829C4.25 28.5248 11.3015 35.5304 20 35.5304ZM20 37.7658C29.9411 37.7658 38 29.7594 38 19.8829C38 10.0064 29.9411 2 20 2C10.0589 2 2 10.0064 2 19.8829C2 29.7594 10.0589 37.7658 20 37.7658Z"
        fill="#040403" />
  <path fill-rule="evenodd"
        clip-rule="evenodd"
        d="M20 22.8411C23.7792 22.8411 26.75 19.8834 26.75 16.3473C26.75 12.8112 23.7792 9.85353 20 9.85353C16.2208 9.85353 13.25 12.8112 13.25 16.3473C13.25 19.8834 16.2208 22.8411 20 22.8411ZM20 25.0765C24.9706 25.0765 29 21.1683 29 16.3473C29 11.5263 24.9706 7.61816 20 7.61816C15.0294 7.61816 11 11.5263 11 16.3473C11 21.1683 15.0294 25.0765 20 25.0765Z"
        fill="#040403" />
  <path fill-rule="evenodd"
        clip-rule="evenodd"
        d="M15.4673 21.9692L15.9937 22.2979C17.2336 23.072 18.8621 23.2746 20.5082 23.1447C22.1409 23.0158 23.6441 22.5707 24.4983 22.2139L24.9452 22.0272L25.3887 22.2218C25.5063 22.2734 25.6746 22.3458 25.8803 22.4343C26.9062 22.8757 28.8621 23.7173 30.101 24.3731C30.8265 24.7571 31.458 25.1326 31.9541 25.5975C32.485 26.095 32.8271 26.6604 33.0432 27.3643L33.0921 27.5237V32.4696L32.6498 32.8051C32.6007 32.8424 32.5502 32.8807 32.4984 32.9201C30.3715 34.5359 25.9669 37.8822 20.4403 37.9973C17.5805 38.0569 14.7768 37.1663 12.4869 36.0793C10.1952 34.9914 8.32602 33.6629 7.31435 32.7401L6.89551 32.358L6.95678 31.7963C6.99247 31.4692 6.96934 30.9339 6.93855 30.2212C6.93616 30.166 6.93373 30.1097 6.93127 30.0523C6.90043 29.3317 6.86803 28.4583 6.95962 27.7582C7.09513 26.7223 7.77345 25.9867 8.3678 25.5205C8.96416 25.0527 9.6276 24.7355 10.0681 24.5516L15.4673 21.9692ZM15.354 24.5043L10.9899 26.5916L10.9617 26.6033C10.6073 26.7498 10.1406 26.978 9.76205 27.2749C9.36821 27.5838 9.21661 27.8494 9.19085 28.0463C9.1288 28.5206 9.14659 29.1944 9.17924 29.9574C9.18232 30.0292 9.18559 30.1026 9.1889 30.177C9.20716 30.587 9.22687 31.0295 9.22379 31.4283C10.1368 32.1803 11.6377 33.1987 13.4569 34.0623C15.5653 35.0631 18.0094 35.8121 20.3931 35.7624C24.903 35.6685 28.6301 33.0306 30.8421 31.3633V27.8719C30.7394 27.5974 30.6066 27.4076 30.4104 27.2238C30.1468 26.9768 29.7434 26.7166 29.043 26.3459C27.8983 25.74 26.0775 24.9558 25.0314 24.5053C24.9904 24.4876 24.9505 24.4705 24.912 24.4539C23.8508 24.8437 22.3283 25.2434 20.6864 25.373C18.9927 25.5067 17.0512 25.362 15.354 24.5043Z"
        fill="#040403" />
</svg>