<svg width="40"
     height="40"
     viewBox="0 0 40 40"
     fill="none"
     xmlns="http://www.w3.org/2000/svg">
  <path fill-rule="evenodd"
        clip-rule="evenodd"
        d="M18.1158 33.4997C25.3002 33.4997 32.7498 27.4999 32.7498 18.4692C32.7498 9.8954 25.3002 3.14276 18.1158 3.14276C9.49996 3.50068 3.49999 10.2505 3.49999 18.5002C3.49999 25.9967 7.99997 32.7497 18.1158 33.4997ZM18.1158 34.9383C27.0163 34.9383 34.2316 27.5648 34.2316 18.4692C34.2316 9.37349 27.0163 2 18.1158 2C9.21528 2 2 9.37349 2 18.4692C2 27.5648 9.21528 34.9383 18.1158 34.9383Z"
        fill="#040403" />
  <path fill-rule="evenodd"
        clip-rule="evenodd"
        d="M30.3222 28.585L37.6538 35.6359L37.8282 35.9275L36.4076 36.4972C37.8006 35.9377 37.8282 35.9275 37.8282 35.9275L37.8293 35.9304L37.8305 35.9333L37.8329 35.9396L37.8382 35.9536L37.8505 35.9872C37.8595 36.0121 37.8692 36.042 37.8804 36.0767C37.9025 36.1457 37.9267 36.2346 37.9509 36.3405C37.9987 36.55 38.0034 36.902 37.9989 37.243C37.9995 37.6219 37.6551 37.8637 37.6551 37.8637C37.6551 37.8637 37.4995 38.0785 36.7477 37.9688C36.3864 37.916 36.0855 37.8178 35.8769 37.7315C35.7706 37.6875 35.6824 37.6472 35.6157 37.6129C35.5822 37.5956 35.5537 37.581 35.5306 37.568L35.4998 37.5508L35.4874 37.5437L35.482 37.5405L35.4795 37.5391C35.4795 37.5391 35.4771 37.5594 36.2488 36.2711L35.4771 37.5377L35.3256 37.4483L28.79 30.5986L30.3222 28.585ZM36.1509 36.5139C36.1756 36.5209 36.2012 36.5267 36.2263 36.5304C36.3033 36.5416 36.3083 36.5366 36.3463 36.4976L36.3513 36.4924C36.4555 36.386 36.4941 36.2948 36.508 36.2193L30.3544 30.3336L30.106 30.5986L36.1509 36.5139Z"
        fill="#040403" />
</svg>