<?xml version="1.0" encoding="utf-8"?>
<!-- Generator: Adobe Illustrator 21.0.0, SVG Export Plug-In . SVG Version: 6.00 Build 0)  -->
<svg version="1.1" id="Calque_1" xmlns="http://www.w3.org/2000/svg" xmlns:xlink="http://www.w3.org/1999/xlink" x="0px" y="0px"
	 viewBox="0 0 600 600" style="enable-background:new 0 0 600 600;" xml:space="preserve">
<style type="text/css">
	.st0{fill:#242424;}
</style>
<path class="st0" d="M207.24,381.9c-3.56-2.85-7.69-4.7-12.25-5.84c-7.27-1.99-14.53-2.28-21.94-1.28
	c-3.85,0.43-7.55,0.86-11.11,2.28c-1.42,0.57-2.85,1.42-3.99,2.28c-1,0.57-1.14,1.57-0.29,2.56c0.71,1,0.71,1.85,0.71,2.85
	c-0.43,5.7-0.85,11.4-1.28,17.24c-0.85,14.39-0.71,28.92-0.14,43.45c0.28,8.12,1.14,15.96,2.42,23.94c0.28,2.14,1.14,3.7,3.28,4.27
	c4.13,1.14,8.26,1.28,11.97-1.42c0.85-0.71,1.71-1,2.85-1.14c1.42-0.28,2.99-0.43,4.42-0.71c4.42-0.57,8.83-1.28,13.11-2.71
	c3.13-0.85,5.84-2.28,8.41-4.42c1.71-1.28,3.13-2.85,4.13-4.84c1.71-3.42,1.28-6.7-1-9.69c-1.57-2.14-3.56-3.71-5.84-4.99
	c-2.71-1.57-5.7-2.71-8.83-3.42c-2.28-0.71-4.56-1.14-7.69-1.85c1-0.85,1.57-1.28,2.28-1.71c2.14-1.42,4.27-2.71,6.41-4.13
	c6.7-4.42,12.11-9.97,16.53-16.67c2.99-4.42,5.13-9.12,5.7-14.39C216.08,393.59,213.65,387.03,207.24,381.9z M163.5,386.6
	c-1.71,7.55-1.57,15.25-1.57,22.8c0,10.69,0,21.37,0.14,32.06c0,5.7,0.28,11.4,0.43,17.1c0,0-0.14,0-0.14,0.14
	c-0.43-2.14-0.85-4.27-1-6.27c-0.85-9.55-1.71-19.09-1.28-28.64c0.28-8.26,0.14-16.53,0.28-24.79c0.14-2.56,0.14-5.13,0.43-7.55
	c0.28-1.85,0.85-3.71,1.28-5.56c0.14-0.14,0.71-0.29,1-0.29c0.14,0,0.29,0.43,0.43,0.71C163.5,386.32,163.5,386.46,163.5,386.6z
	 M188.44,448.29c0.85,0.43,1.57,1,2.14,1.57c2.71,2.56,2.99,5.84,0.57,8.83c-1.42,1.57-3.13,2.71-4.99,3.42
	c-2.56,1-6.98,2-10.83,2.28c-0.14-6.7-0.28-13.11,0.29-19.8C180.32,445.02,184.59,445.87,188.44,448.29z M200.69,400.85
	c-0.57,3.7-1.57,7.27-3.56,10.54c-4.84,8.12-10.97,15.1-19.23,20.09c-0.57,0.29-1.14,0.57-1.71,0.71c-0.14,0.14-0.29,0-0.71-0.14
	c0-0.85-0.14-1.85-0.14-2.71c-0.28-12.11-0.43-24.22-0.71-36.19c0-2.71-0.43-5.41-0.71-7.98c-0.14-1.28-0.14-2.56-0.29-3.7
	c0.43-0.29,0.71-0.43,0.85-0.43c5.56-1.14,10.97-0.71,16.1,1.57C197.98,385.89,201.69,392.87,200.69,400.85z M213.08,399.43
	c-1,7.41-2.56,4.84-2.42,2.14c0-1.85-0.14-6.41-1.28-10.69c-0.14-0.14-0.14-0.14-0.14-0.14v-0.14c0-0.08,0-0.14,0-0.14
	c-0.71-2.14-1.57-4.27-2.71-5.7C206.25,384.47,214.08,392.02,213.08,399.43z M270.36,467.1c-0.57-0.14-1.28-0.43-1.99-0.43
	c-1.57-0.14-3.13-0.29-4.84-0.14c-3.56,0.29-7.12,0.57-10.83,0.85c-1.99,0.14-3.99,0-5.98,0c-1.85-0.14-2.99-1.14-3.56-2.85
	c-0.14-0.43-0.43-1-0.57-1.57c-0.85-4.99-1.14-10.12-1-15.25c1.28-0.43,2.42-0.71,3.7-1c2.99-0.57,6.13-1,9.12-1.71
	c1.57-0.28,3.13-0.71,4.56-1.42c1.42-0.86,1.42-2.42,0-3.13c-1-0.57-2.28-1.14-3.42-1.14c-2.42,0-4.84,0.14-7.12,0.43
	c-2.28,0.29-4.56,0.71-6.84,0.86c-0.14-0.57-0.43-1-0.43-1.28c-0.14-18.24-0.14-36.33-0.14-54.57c0-0.57,0.14-1,0.28-1.71
	c0.85-0.14,1.57-0.29,2.42-0.29c3.7,0,7.55,0,11.26,0c2.14,0,4.27,0.29,6.41,0c1.57-0.14,3.28-0.71,4.56-1.42
	c1.71-0.71,1.85-2.56,0.14-3.42c-1.28-0.71-2.85-1.28-4.42-1.57c-8.98-1.57-18.09-1.28-27.07-0.57c-2.85,0.28-5.84,0.85-8.69,1.57
	c-1.28,0.29-2.56,1-3.56,1.71c-1.14,0.57-1,2-0.14,2.71c1,0.71,1.99,1.28,3.13,1.99c0,1.57-0.14,2.99-0.14,4.42
	c-0.29,5.84-0.57,11.68-0.71,17.38c-0.29,10.83-0.57,21.66,0.14,32.34c0.43,6.98,1,13.96,1.57,20.94c0.29,2.28,1,4.56,1.71,6.7
	c1,2.85,3.13,4.99,5.98,6.27c1.57,0.57,3.28,1.14,4.99,1.42c3.85,0.71,7.84,1,11.68,0.71c5.56-0.43,10.97-1,16.53-1.42
	c1.14-0.14,2.42-0.57,3.56-0.85c1-0.43,1.99-1,2.14-2.14C272.92,468.67,271.93,467.53,270.36,467.1z M228.47,447.58
	c0,2.14,0,4.27-0.14,6.41c-1.42-7.41-1.85-14.96-2.14-22.51c-0.14-7.55-0.14-15.1,0-22.65c0.43-17.95,0.57-20.09,1.85-22.79
	c0.29,0.28,0.85,0.43,0.85,0.71c0.14,0.57,0.14,1.28,0.14,2c-0.43,9.54-1,19.09-1.14,28.64
	C227.76,427.35,228.33,437.47,228.47,447.58z M319.8,382.19c-1.14-2.56-2.85-4.7-5.41-5.98c-5.41-2.71-15.81-3.13-21.8,3.99
	c-1.42,1.71-2.85,3.42-4.13,5.27c-3.28,4.84-5.98,9.97-8.12,15.39c-7.27,17.81-11.11,36.19-10.54,55.42c0,1.28,0,2.42,0.14,3.56
	c0.14,2,1.28,3.28,2.99,3.85c2.71,0.85,5.41,0.85,8.12,0c1.71-0.57,2.71-1.57,2.85-3.42c0.14-1.42,0.14-2.85,0.29-4.27
	c0.28-1.71,0.14-3.42,1-5.13c5.84-1.14,11.54-1.57,17.67-1c0.14,1.85,0.14,3.28,0.29,4.7c0.43,5.13,0.57,10.26,1.14,15.39
	c0.29,3.13,1.57,4.27,4.56,4.99c2.71,0.57,5.27,0.57,7.98,0c2.99-0.85,3.85-1.85,3.85-4.99c0-0.43-0.14-0.85-0.14-1.14
	c0-8.26-0.28-16.38,0-24.5c0.43-10.54,1.28-21.09,2-31.63c0.43-7.27,0.57-14.53-0.43-21.66
	C321.65,388.03,321.08,385.04,319.8,382.19z M280.62,412.53c-1.85,6.41-3.56,12.96-4.99,19.52c-1,4.13-1.28,8.26-1.99,12.54
	c0,0.71-0.14,1.42-0.57,1.99c-0.29-3.56-0.29-6.98,0.28-10.54c0.43-3.7,1.14-7.27,1.99-10.83c1.28-5.13,2.42-10.26,4.13-15.25
	c3.13-9.54,7.27-18.38,13.11-26.5c0.71-1,1.42-1.85,2.28-2.71c0.29-0.29,2.71-2.28,1.85-0.29c-0.71,1.28-1.14,2.14-1.71,2.71
	C288.45,392.16,283.75,401.99,280.62,412.53z M301.85,442.03c-5.13,0.14-10.26,0.43-15.81,0.71c0-0.71-0.29-1.14-0.14-1.71
	c2.14-15.1,6.41-29.78,12.96-43.6c0.71-1.57,1.57-2.99,2.42-4.56c0.29-0.43,0.57-0.71,1.42-1.57
	C303.13,395.44,302.41,438.89,301.85,442.03z M320.65,405.55c-0.14,3.28-2.42,2.28-2.71-1.28c-0.14-3.56-0.14-20.8-1.99-24.08
	C315.95,380.19,321.51,383.9,320.65,405.55z M395.88,443.02c-4.13-2.56-12.54-1.85-15.24,2.28c-2.42,3.56-5.41,6.7-8.26,9.83
	c-2.42,2.71-5.27,5.27-7.98,7.69c-0.71,0.71-1.71,1-2.42,1.42c-2.56-2.28-3.99-4.84-5.13-7.55c-1.85-4.13-2.99-8.55-3.56-13.11
	c-1.42-10.97-0.57-21.8,1.85-32.48c1.57-7.12,3.99-13.96,8.4-19.8c1.57-2.14,3.13-4.27,5.56-5.98c3.56,2.14,5.84,4.7,7.69,7.84
	c0.57,1,1.14,2,1.71,3.13c0.71,1.57,1.85,2.56,3.42,3.13c3.42,1,6.7,1.14,10.12,0c2.71-1,3.85-2.99,3.42-5.84
	c-0.57-3.13-1.85-5.98-3.85-8.41c-3.13-3.7-6.84-6.55-11.4-8.26c-10.97-3.99-25.64-3.13-35.47,9.26c-4.7,5.7-7.84,12.11-9.97,19.09
	c-3.42,10.83-4.42,21.8-3.85,33.2c0.14,4.13,0.86,8.12,2.14,12.11c1.71,5.56,4.13,10.69,8.12,15.1c2.28,2.56,4.84,4.7,8.12,5.84
	c11.54,4.27,22.37,3.28,31.77-5.13c6.27-5.56,10.83-12.54,15.53-19.23c0.14-0.14,0.14-0.29,0.29-0.43
	C397.73,445.02,397.44,444.02,395.88,443.02z M337.89,451c-1.14-2.56-0.57-6.7-0.57-6.7c0,0.57,0.14,1.28,0.43,1.99h0.14
	c0,0.14,0,0.14,0,0.14c0.29,0.86,0.71,1.71,0.86,2.56C339.03,450.57,339.03,453.57,337.89,451z M346.72,392.45
	c-0.29,0.71-0.57,1.42-0.86,1.99c-5.84,12.68-8.55,26.07-8.55,39.89c0.14,2.71,0,5.27,0,7.98c-3.42-17.38-0.43-33.91,7.12-49.72
	c0.14-0.29,0.29-0.57,0.43-0.71c0.43-0.43,1-0.85,1.42-0.85C347.01,391.16,347.01,391.88,346.72,392.45z M462.63,375.92
	c0-2.71-0.86-3.7-3.56-4.13c-1.42-0.14-2.99-0.14-4.42,0c-3.13,0.28-3.99,1.28-3.99,4.42c-0.43,18.66-0.71,37.47-1.14,56.13
	c0,0.86-0.14,1.71-0.29,2.71c-3.99,0.14-7.84,0.14-11.68,0.29c-3.85,0.29-7.84,0.57-12.25,1c0-1.42-0.14-2.42-0.14-3.42
	c0.14-6.41,0.29-12.68,0.29-19.09c0.14-10.26,0.86-20.66,0-30.92c-0.29-2.85-0.57-5.56-0.86-8.41c-0.29-2-1.14-3.56-3.28-4.42
	c-3.85-1.42-7.7-1.42-11.54,0c-1.57,0.57-2.56,1.71-2.85,3.28c-0.14,1.28-0.57,2.56-0.57,3.85c-0.43,4.56-0.85,9.12-1.14,13.68
	c-0.57,8.69-1.14,17.52-1.43,26.36c-0.29,8.55-0.14,17.24,0.86,25.93c0.71,7.27,1.57,14.67,1.85,22.08c0,1.28,0.29,2.71,0.57,4.13
	c0.14,1.85,1.28,2.99,2.85,3.56c3.7,1.57,7.55,1.57,11.26,0.14c1.85-0.57,2.71-1.85,2.71-3.99c-0.14-4.84,0-9.69,0.14-14.53
	c0.14-3.28,0.57-6.55,0.86-9.69c3.71-1.42,18.95-3.28,24.36-3.13c0.57,1.14,0.29,2.42,0.43,3.7c0.14,6.27,0.14,12.54,0.43,18.66
	c0,2.99,0.57,3.7,3.42,4.27c1.14,0.29,2.56,0.43,3.71,0.14c4.56-0.71,4.56-1.71,4.56-5.13c0-0.57,0-1.28,0-1.85
	c-0.14-5.84-0.14-11.68-0.14-17.67c0.29-19.66,0.71-39.46,1-59.13C462.63,381.76,462.63,378.91,462.63,375.92z M410.92,381.33
	c-1.43,14.96-1.85,30.06-1.85,45.02c0.14,9.97,0.71,20.09,1,30.06c-0.14,0-0.29-0.14-0.43-0.14c-0.71-7.12-1.42-14.1-1.99-21.23
	c-0.71-7.69-0.57-15.53-0.14-23.22c0.29-4.27,0.29-8.41,0.43-12.68c0.29-4.99,0.57-10.12,0.85-15.25c0.14-1.28,0.29-2.71,0.57-4.13
	c0.14-0.29,0.57-0.71,0.86-1c0.29,0.29,0.43,0.29,0.43,0.43c0.14,0,0.29,0.14,0.29,0.29C410.92,380.05,410.92,380.76,410.92,381.33z
	 M458.93,418.94c-1.28,0.14-1.28-2.85-0.43-2.99C459.07,415.67,460.07,418.94,458.93,418.94z M459.07,413.82
	c0,0.57,0,0.57-0.57,0.57c-0.43,0.14-0.57-0.14-0.71-0.29c-0.29-0.29-0.29-1-0.29-2.71c0.29-6.27,0.57-12.54,0.85-18.95
	c0.14-2.28,0.71-4.42,1.14-7.12C459.35,395.15,459.21,404.41,459.07,413.82z"/>
<path class="st0" d="M171.99,278.59c-1.56-0.08-3.12-0.25-4.75-0.25c0.72,4.86,0.33,10.4,0.39,15.26l0.39,16.43
	c0.13,5.79,0.33,11.49,0.59,17.27c0.2,5.37,0.85,10.98,0.26,16.27c-0.26,2.68-3.45,2.35-3.97,0c-1.11-5.37-0.85-11.57-1.04-17.1
	c-0.2-5.45-0.39-10.98-0.52-16.43c-0.2-5.79-0.33-11.49-0.39-17.27c-0.06-4.61-0.52-9.73,0.07-14.34c-1.76,0.25-3.51,0.59-5.27,0.75
	c-2.41,0.08-2.6-4.28-0.52-5.11c4.55-2.1,10.67-1.93,15.29-0.42C174.65,274.32,174.2,278.68,171.99,278.59z M196.84,302.49
	c0.39,4.86,0.39,9.98-0.06,14.84c-0.13,2.85-0.39,5.53-0.65,8.3c-0.72,6.96-1.69,14.51-3.97,20.96c-1.37,4.02-4.55,6.79-8,4.44
	c-3.77-2.52-5.01-8.72-5.66-13.42c-0.98-7.13-0.98-14.34-0.85-21.55c0.2-6.37,0.33-12.83,1.37-19.12c0.85-5.11,2.6-11.57,6.18-14.84
	c3.06-2.77,6.51-1.43,8.26,2.52C195.74,289.91,196.32,296.62,196.84,302.49z M192.35,294.78c-0.39-1.51-1.04-6.79-2.54-7.55
	c-4.55-2.43-6.83,13.08-7.03,15.34c-0.52,5.53-0.59,11.15-0.65,16.77c-0.13,6.37,0,12.83,1.17,19.2c0.33,1.76,0.65,6.04,2.54,7.29
	c2.28,1.51,3.45-4.61,3.9-6.29C193.39,327.39,192.94,297.21,192.35,294.78z M232.31,273.65c-4.62-1.51-10.74-1.68-15.29,0.42
	c-2.08,0.84-1.89,5.2,0.52,5.11c1.76-0.17,3.51-0.5,5.27-0.75c-0.59,4.61-0.13,9.73-0.06,14.34c0.06,5.79,0.19,11.49,0.39,17.27
	c0.13,5.45,0.33,10.98,0.52,16.43c0.2,5.53-0.06,11.74,1.04,17.1c0.52,2.35,3.71,2.68,3.97,0c0.59-5.28-0.06-10.9-0.26-16.27
	c-0.26-5.79-0.46-11.49-0.59-17.27l-0.39-16.43c-0.07-4.86,0.33-10.4-0.39-15.26c1.63,0,3.19,0.17,4.75,0.25
	C234,278.68,234.45,274.32,232.31,273.65z M253.97,279.85c-0.06-2.52-3.19-3.44-3.51-0.67c-1.24,10.15-1.11,20.63-1.3,30.86
	c-0.06,5.12-0.26,10.4-0.33,15.6c-1.43-0.08-2.93,0.42-4.36,0.75l-0.98,0.25c-0.2-4.95-0.33-9.89-0.52-14.84
	c-0.39-10.31,0-21.55-1.76-31.69c-0.46-2.85-3.32-1.84-3.58,0.59c-0.52,5.37-0.06,11.07,0.06,16.43c0.2,5.45,0.39,10.98,0.52,16.43
	c0.2,5.12,0.2,10.4,0.26,15.68c-0.13,0.59-0.06,1.26,0.06,1.76c0.13,4.95,0.46,9.73,1.17,14.42c0.52,3.19,3.9,2.01,4.1-0.75
	c0.39-4.11,0.13-8.38-0.07-12.58c1.69-0.17,3.45-0.5,5.08-1.09c0,3.69,0.13,7.38,0.39,10.98c0.33,3.44,3.9,3.52,4.16,0
	c0.65-10.23,0.06-20.79,0.26-31.11C253.78,300.64,254.49,290.08,253.97,279.85z M271.35,340.05c-2.47-1.01-5.14-0.84-7.74-0.33
	c-0.06-2.26-0.06-4.53-0.13-6.79c0.72,0,1.37-0.25,2.02-0.5l1.24-0.5c0.46-0.25,0.91-0.59,1.37-0.75c2.34-0.84,1.37-5.28-1.04-4.7
	c-0.46,0.08-0.98,0-1.43,0.17c-0.46,0.08-0.85,0.17-1.3,0.25l-0.98,0.25c-0.26-11.82-0.65-23.65-0.98-35.55
	c2.41-0.67,4.81-1.34,7.03-2.68c1.76-1.01,0.85-4.53-0.98-4.53c-2.99,0.08-5.99,1.26-8.98,2.18c-0.91,0.25-1.63,1.51-1.63,2.77
	c0.26,18.03,0.26,36.14,0.91,54.17c0.06,2.1,1.5,3.61,3.12,3.1c3.12-1.01,6.31-0.75,9.5-1.51
	C273.43,344.58,273.1,340.81,271.35,340.05z"/>
<path class="st0" d="M461.07,231c-1.31-0.93-4.92,2.23-6.78,4.02c-7.72-0.24-63.99-1.88-69.43,0.08l-0.53,0.19l-0.06,0.56
	c-0.27,2.48,2.32,3.47,5.08,4.52c3.63,1.39,7.74,2.96,7.51,7.89l-0.04,0.91l0.91,0.03c0.44,0.02,10.8,0.56,10.6,12.8l-0.01,0.98
	l0.98-0.07c0.06-0.01,6-0.35,10.39,3.38l-22.15,19.52c-21.28-4.79-56.61-5.65-80.2-2.27l-26.54-29.07
	c-0.04-0.74-0.26-2.36-1.44-3.43c-0.78-0.71-1.81-1.06-3.04-1c-0.06-0.16-0.13-0.35-0.21-0.54c0.02-0.69,0.07-1.42,0.14-2.2
	c-0.39,0.28-0.84,0.49-1.35,0.63c-0.1-0.08-0.19-0.18-0.31-0.25c-0.91-0.59-2.03-0.75-3.32-0.49c-0.32-0.52-0.86-1.18-1.75-1.58
	c-1.14-0.52-2.5-0.48-4.05,0.13c-0.61-0.34-1.76-0.81-3-0.49c-0.99,0.25-1.81,0.93-2.45,2.01c-0.84-0.27-2.18-0.54-3.49-0.07
	c-1.09,0.39-1.93,1.2-2.49,2.4l-16.89,11.31l-0.06,0.38c-0.26,1.54,0.19,4.64,3.7,5.37l0.37,0.08l15.24-10.06
	c0.56,0.32,1.46,0.69,2.49,0.49c0.95-0.18,1.78-0.79,2.46-1.8c0.73,0.41,1.81,0.85,2.89,0.64c0.38-0.07,0.74-0.23,1.05-0.45
	c0.42,0.48,1.01,0.95,1.8,1.07c0.69,0.1,1.37-0.08,2.03-0.55c0.44,0.55,1.09,1.15,1.95,1.31c0.39,0.08,0.93,0.08,1.52-0.2
	c0.49,0.74,1.3,1.7,2.37,1.99c0.5,0.13,1,0.11,1.48-0.06L310,284.81c-3.24,0.68-6.15,1.45-8.58,2.34
	c-6.95,2.54-9.69,5.76-9.06,11.06c0.12,3.28,0.96,14.84,6.72,27.28c5.63,12.16,17.12,27.14,40.29,32.71
	c-4.34,0.35-6.9,0.78-6.9,1.24c0,1.18,16.68,2.14,37.25,2.14c20.57,0,37.25-0.96,37.25-2.14c0-1.16-16.12-2.1-36.2-2.13
	c11.77-4.22,22.06-13.15,30.4-26.55c9.86-15.85,13.73-32.79,14.05-34.28c0.08-0.26,0.24-1.61-0.1-2.3
	c-1.65-3.08-6.92-5.62-14.42-7.59l20.79-18.32c1.92,2.56,2.93,5.96,2.99,10.17l0.01,0.84l0.84,0.04c0.51,0.03,12.41,0.75,12.41,9.66
	l0,1.2l1.15-0.33c0.32-0.09,7.86-2.16,14.78,6.44l0.22,0.27l0.34,0.06c0.06,0.01,0.12,0.01,0.18,0.01c0.27,0,0.52-0.1,0.73-0.28
	c0.64-0.56,1.83-1.61,1.47-31.35c-0.14-11.31-0.46-22.57-0.6-27.05C458.09,236.22,462.14,232.57,461.07,231z M274.19,254.07
	c-0.13,0.09-0.25,0.13-0.34,0.15c-0.79,0.16-1.95-0.58-2.29-0.85l-0.87-0.69l-0.5,0.99c-0.35,0.69-0.92,1.55-1.69,1.7
	c-0.8,0.15-1.55-0.47-1.55-0.48l-0.52-0.46l-15.68,10.35c-1.82-0.55-2-2.13-1.98-2.87l16.65-11.15l0.1-0.25
	c0.37-0.87,0.88-1.41,1.55-1.66c1.33-0.48,2.89,0.3,2.9,0.31l0.85,0.44l0.39-0.87c0.45-1,1-1.6,1.64-1.77
	c0.61-0.16,1.22,0.07,1.59,0.26C273.93,249.15,273.68,251.5,274.19,254.07z M348.57,283.23c16.73,0,34.42,1.47,47.17,4.12
	l-3.49,3.07c-26.49-3.69-52.34-2.38-69.25-0.65l-4.3-4.71C327.65,283.83,338.02,283.23,348.57,283.23z M318.52,294.1
	c-1.11,0.18-1.96,0.36-2.59,0.53c-3.58-0.3-6.53-0.64-8.58-1.02c2.23-0.36,5.48-0.83,9.5-1.33L318.52,294.1z M397.78,294.27
	c-0.72-0.17-1.64-0.36-2.84-0.57c-0.69-0.11-1.35-0.2-1.98-0.29l1.04-0.91c2.38,0.35,4.76,0.74,7.13,1.18
	C400.34,293.86,399.25,294.07,397.78,294.27z M389.32,293.02c-9.91-0.77-13.89,1.62-40.23,0.46c-10.32-0.45-17.64-0.4-22.82-0.12
	l-1.75-1.92c16.48-1.62,40.86-2.75,65.96,0.57L389.32,293.02z M278.2,254.43c-0.28,0.25-0.6,0.44-0.9,0.4
	c-0.5-0.07-0.99-0.79-1.14-1.13l-0.34-0.75c-0.28-2.12,0-4.06,0.47-5.62c0.97-0.34,1.8-0.39,2.43-0.11c0.4,0.18,0.67,0.46,0.85,0.71
	C278.48,250.41,278.17,252.64,278.2,254.43z M281.88,254.83c-0.71-2.23-0.83-4.18-0.7-5.78c0.99-0.27,1.79-0.24,2.38,0.13
	c0.31,0.2,0.53,0.47,0.7,0.75c0,0.07,0,0.14-0.01,0.21C283.41,251.31,282.58,252.86,281.88,254.83z M285.62,257.43
	c-0.1,0.01-0.18,0-0.25-0.02c-0.71-0.19-1.46-1.37-1.71-1.91l-0.06-0.12c0.25-0.69,0.52-1.32,0.79-1.9
	c0.07,0.69,0.16,1.31,0.26,1.85c0.49-0.27,1.07-0.44,1.73-0.49c-0.14-0.81-0.26-1.8-0.31-2.98c0.88-0.08,1.57,0.08,2.04,0.5
	c0.57,0.51,0.76,1.3,0.83,1.84C287.47,255.13,286.36,256.21,285.62,257.43z M289.63,255.89l34.33,37.6
	c-1.24,0.09-2.33,0.19-3.28,0.31l-33.1-36.06C288.11,257.07,288.8,256.46,289.63,255.89z M308.48,323.82
	c-2.94-4.89-4.93-10.5-5.58-16.19c-0.2-1.72,2.5-1.7,2.7,0c0.59,5.18,2.54,10.38,5.21,14.83
	C311.71,323.95,309.38,325.31,308.48,323.82z M330.72,348.37c-3.68-3.86-6.01-9.17-7.31-14.3c-0.43-1.69,2.17-2.4,2.6-0.72
	c1.2,4.69,3.26,9.58,6.62,13.11C333.82,347.72,331.92,349.62,330.72,348.37z M331.17,325.44c-3.5-4.02-5.55-9.36-6.01-14.66
	c-0.15-1.73,2.55-1.72,2.7,0c0.4,4.56,2.22,9.31,5.22,12.76C334.21,324.84,332.31,326.75,331.17,325.44z M350.33,309.88
	c-0.19-1.72,2.5-1.71,2.7,0c0.51,4.49,0.82,10.13-1.53,14.16c-0.87,1.5-3.2,0.14-2.33-1.36
	C351.24,319.12,350.77,313.85,350.33,309.88z M350.78,334.15c0.22,5.02,0.45,10.04,0.67,15.06c0.08,1.74-2.62,1.73-2.7,0
	c-0.22-5.02-0.45-10.04-0.67-15.06C348,332.41,350.7,332.42,350.78,334.15z M368.76,348.13c-1.56,0.75-2.92-1.58-1.36-2.33
	c5-2.41,8.26-7.73,8.77-13.22c0.16-1.72,2.86-1.73,2.7,0C378.28,338.99,374.65,345.29,368.76,348.13z M367.8,324.88
	c3.11-3.79,4.68-9.01,5.5-13.79c0.29-1.71,2.89-0.98,2.6,0.72c-0.9,5.28-2.77,10.8-6.19,14.98
	C368.61,328.13,366.71,326.22,367.8,324.88z M391.28,325.44c-1.2,1.26-3.11-0.65-1.91-1.91c3.82-3.97,7.41-9.66,7.02-15.45
	c-0.12-1.74,2.58-1.72,2.7,0C399.53,314.57,395.57,320.98,391.28,325.44z M413.55,295.02c0.06,0.11,0.08,0.26,0.08,0.43
	c-3.25,0.9-23.26,6.03-57.71,6.03c-17.19,0-37.97-1.28-62.04-5c-0.52-2.9,2.22-5.47,8.16-7.64c2.68-0.98,5.85-1.81,9.34-2.53
	l3.98,4.34c-7.34,0.92-11.76,1.69-11.87,1.79c-1.25,0.47-0.41,1.57-0.41,1.57c2.95,2.52,28.6,3.74,53.27,3.74
	c18.98,0,37.37-0.73,44.4-2.16c2.46-0.5,4.37-1.3,4.44-2.21c0.06-0.7-0.98-0.95-0.98-0.95c-2.82-0.56-5.64-1.06-8.46-1.5l3.25-2.86
	C406.7,289.93,412.09,292.27,413.55,295.02z M399.55,247.67l52.1-10.36l-40.58,23.83c-0.37-0.03-0.69-0.04-0.97-0.05
	C409.86,251.12,402.9,248.41,399.55,247.67z M426.63,277.65l26.18-36.44c-3.88,12.02-11.62,37.35-13.36,46.4
	C438.51,279.99,429.84,278.09,426.63,277.65z"/>
<path class="st0" d="M191.92,123.61c-0.75,0-1.35-0.3-2.1-0.3c-0.9-0.15-1.8-0.3-2.7-0.15c-5.39,0.75-4.94-0.3-4.79,5.24
	c0,6.59-0.3,13.03-0.3,19.63c0,7.94,0,15.88,0,23.82h0.15c0.15,7.49,0.45,15.13,0.6,22.62c0.15,7.34,0.3,14.83,0.45,22.17
	c0,1.05,0,2.25-0.15,3.3c-0.15,1.05-1.2,1.95-2.25,1.95s-1.95-0.45-2.25-1.35c-0.45-0.9-0.75-1.8-0.9-2.7
	c-0.6-5.84-1.35-11.69-1.8-17.53c-0.75-11.24-1.5-22.47-2.1-33.71c-0.3-4.19-0.3-8.39-0.45-12.73c-0.15-3-0.15-5.99-0.45-8.99
	c-0.3-5.69,0.3-11.39,0.6-17.23c0.15-0.6,0.3-1.35,0.3-1.95c0-0.9-0.3-1.2-1.35-1.2c-0.9,0-1.8,0-2.85,0c-3,0-5.99,0-8.99-0.15
	c-1.5-0.15-3-0.6-4.34-0.9c-1.05-0.3-1.65-1.05-1.8-2.1c-0.15-1.35,0.45-2.25,1.5-2.85c0.6-0.3,1.2-0.6,1.8-0.6
	c1.5-0.3,3-0.6,4.49-0.75c9.29-0.3,18.58-0.45,27.86,0.6c1.05,0.15,1.95,0.15,2.85,0.45c1.2,0.45,1.95,1.8,1.8,3
	C194.62,122.56,193.27,123.61,191.92,123.61z M326.14,210.65c0,1.65-0.6,3.15-1.65,4.49c-2.25,3.45-5.39,5.39-9.44,5.99
	c-0.75,0.15-1.65-0.15-2.4-0.15c-4.64-0.75-7.94-3.3-10.64-7.04c-2.85-3.75-4.34-7.94-5.24-12.43c-0.34-1.54-0.62-3.09-0.84-4.63
	c-1.62,3.66-3.63,7.18-6.2,10.32c-1.35,1.8-3,3.15-5.09,4.04c-4.04,1.5-7.79,1.35-11.39-0.9c-4.19-2.7-7.64-5.84-10.49-9.89
	c-1.8-2.85-3.3-5.99-4.64-9.14c-0.15-0.15-0.45-0.3-0.6-0.45c0,0.15-0.3,0.3-0.3,0.6c-0.6,4.64-0.75,9.29-0.45,13.93
	c0.3,3.9,0.6,7.94,1.8,11.69c0.15,0.6,0.15,1.2,0.15,1.65c0,1.05-0.6,1.8-1.5,2.25c-0.9,0.3-2.1,0.15-2.55-0.75
	c-0.75-1.05-1.35-2.1-1.8-3.3c-1.5-4.49-3.3-8.99-4.64-13.48c-0.64-2.15-1.26-4.3-1.87-6.44c-0.96,5.57-2.53,10.91-5.02,16.02
	c-1.05,2.1-2.4,4.04-4.04,5.54c-3,3.15-6.89,3.3-10.49,0.75c-2.55-1.8-4.49-4.34-5.99-7.04c-1.65-3.3-3-6.74-4.04-10.34
	c-0.15-0.3-0.3-0.45-0.45-0.75c-0.3,0.3-0.6,0.45-0.75,0.75c-0.6,1.2-1.05,2.4-1.65,3.45c-0.75,1.35-1.65,2.85-2.85,3.9
	c-2.1,2.25-4.64,2.55-7.49,1.5c-2.7-1.05-4.64-3-5.99-5.39c-1.05-2.1-1.95-4.34-2.4-6.59c-2.25-9.29-2.1-18.43,1.05-27.42
	c0.9-2.7,2.1-5.09,3.6-7.34c2.1-2.7,4.49-4.94,7.64-5.99c3.6-1.35,7.04-0.9,10.19,1.35c3.9,2.85,5.69,6.89,6.14,11.54
	c0,0.75-0.3,1.35-0.45,2.1c-0.15,0.9-1.2,1.65-2.1,1.65c-1.05,0-1.8-0.45-2.25-1.5c-0.3-0.75-0.45-1.5-0.75-2.25
	c-0.45-1.8-1.5-3.3-2.85-4.49c-2.4-1.95-5.24-1.95-7.49,0.15c-1.2,1.05-2.1,2.55-3,3.9c-1.8,3.15-2.85,6.74-3.45,10.49
	c-0.9,6.14-0.6,12.28,1.2,18.28c0.45,1.8,1.35,3.6,2.55,5.09c1.5,1.65,3.45,1.8,4.94,0.15c1.05-1.05,1.8-2.25,2.4-3.45
	c1.35-3.45,2.4-6.89,1.8-10.79c-0.15-0.75-0.15-1.65-0.3-3c0-1.65,0-3.75,0.15-5.99c0-0.9,0.3-1.95,0.6-2.7
	c0.6-1.5,1.8-2.25,3.3-2.1c1.5,0,2.7,0.75,3.3,2.1c0.45,1.35,0.75,2.85,0.9,4.34c0.45,3.9,0.6,7.64,1.05,11.54
	c0.3,4.04,1.2,8.09,2.4,11.98c0.75,2.7,1.95,5.09,3.6,7.34c1.05,1.5,2.1,3.15,4.04,3c2.25-0.15,3.15-1.95,3.9-3.75
	c1.5-4.04,2.4-8.09,3.3-12.28c0.45-2.1,0.75-4.34,1.2-6.44c0.15-0.9,0.6-1.8,1.2-2.55c0.43-0.57,1.1-0.8,1.73-0.73
	c-1.31-4.96-2.48-9.93-3.38-15c-1.05-5.99-1.95-11.98-2.25-17.98c-0.15-3-0.3-5.99-0.45-8.99c-0.15-8.84,0.9-17.53,3-26.07
	c1.05-4.34,2.55-8.39,4.79-12.13c1.65-2.7,3.6-4.94,6.14-6.59c6.44-4.19,13.93-2.1,17.23,4.94c0.9,1.8,1.35,3.75,1.5,5.84
	c0.3,4.64-0.6,9.14-2.1,13.33c-4.19,11.83-10.49,22.17-20.97,29.66c-0.15,0-0.3,0.15-0.45,0.15c-1.35,0.75-1.8,1.8-1.65,3.45
	c0.6,5.99,1.35,11.98,2.7,17.83c0.9,4.04,1.8,7.94,2.7,11.98c0.15,0.15,0.15,0.3,0.3,0.3c0.15-0.15,0.45-0.15,0.45-0.3
	c0.3-1.05,0.45-1.95,0.6-2.85c0.45-2.25,0.75-4.34,1.05-6.44c1.2-5.54,2.7-10.94,5.09-16.03c1.8-3.6,3.9-7.04,6.74-9.74
	c1.95-1.95,4.19-3.15,6.74-3.6c3.75-0.6,6.89,0.9,8.54,4.34c1.35,2.85,1.8,5.99,1.5,9.14c-1.35,8.99-8.84,16.78-17.08,18.43
	c-0.75,0.15-1.35,0.3-1.95,0.6c-0.15,0-0.3,0.3-0.45,0.6c0,0.15,0.15,0.45,0.3,0.75c1.65,4.19,3.6,8.24,6.14,11.98
	c1.95,3,4.34,5.24,7.34,7.19c3,1.8,5.09,1.65,7.79-0.6c2.25-1.8,3.6-4.19,4.64-6.74c1.05-2.25,2.1-4.49,3.15-6.59
	c0.3-0.75,0.75-1.5,1.35-2.1c0.41-0.41,0.96-0.59,1.51-0.58c-0.15-6.08,0.56-12.14,2.09-18.14c0.75-3,1.95-5.69,3.45-8.39
	c1.05-1.95,2.4-3.6,4.04-4.94c5.24-4.49,11.69-3.15,14.98,2.7c1.35,2.7,1.8,5.39,2.1,8.39c0,0.6,0,1.35,0,1.95
	c-0.3,7.79-2.4,15.13-6.59,21.72c-1.2,1.65-2.55,3.3-4.04,4.64c-1.65,1.5-3.59,2.55-5.84,3c-2.4,0.45-2.55,0.6-1.65,3.15
	c0.75,2.1,1.5,4.34,2.4,6.44c1.05,2.1,2.55,3.9,4.49,5.24c1.8,1.2,3.6,1.8,5.84,1.2c1.65-0.45,3-1.35,3.75-3
	c0.6-1.35,1.2-2.7,1.95-4.04c0.6-0.9,1.65-1.2,2.55-0.9C325.7,208.55,326.14,209.45,326.14,210.65z M245.4,143.39
	c0,1.95,0,3.9,0.15,5.69c0,1.35,0.15,2.55,0.3,3.75c0,0.15,0.45,0.3,0.6,0.3c0.6-0.3,1.2-0.75,1.65-1.2
	c8.09-7.64,13.48-16.78,16.33-27.57c0.75-2.7,1.2-5.54,1.05-8.54c-0.15-2.1-0.75-4.19-2.4-5.99c-1.8-1.95-4.19-2.4-6.59-1.2
	c-2.1,1.05-3.6,2.7-4.64,4.49c-1.8,2.7-2.85,5.69-3.6,8.69C246.3,128.85,245.55,136.19,245.4,143.39z M265.77,180.24
	c3.75-1.5,6.59-4.19,8.69-7.64c1.35-2.25,2.1-4.79,1.95-7.49c0-1.05-0.15-2.1-0.3-3.15c-0.75-3.3-2.4-4.19-5.24-2.55
	c-1.05,0.45-1.95,1.05-2.7,1.8c-1.35,1.5-2.55,2.85-3.6,4.49c-2.4,3.75-3.9,7.79-4.94,11.98c-0.45,1.95,0.3,2.85,2.1,3.15
	C263.08,181.14,264.43,180.84,265.77,180.24z M304.12,195.22c1.8-0.15,3.15-1.05,4.34-2.1c1.65-1.5,3-3.3,3.89-5.24
	c2.7-5.39,3.9-11.09,3.9-17.08c-0.15-1.65-0.45-3.45-1.05-5.24c-0.3-1.05-1.05-2.1-1.95-3c-0.9-1.05-2.1-1.05-3.3-0.45
	c-1.35,0.75-2.4,1.95-3.15,3.15c-1.35,2.25-2.25,4.64-3,7.19c-1.35,5.09-1.8,10.19-2.1,16.18c0,1.2,0.15,3.15,0.3,4.94
	C302.18,194.77,302.92,195.22,304.12,195.22z M460.67,210.65c0,1.65-0.6,3.15-1.65,4.49c-2.25,3.45-5.39,5.39-9.44,5.99
	c-0.75,0.15-1.65-0.15-2.4-0.15c-4.64-0.75-7.94-3.3-10.64-7.04c-1.36-1.79-2.41-3.68-3.23-5.66c-1.41,3.18-3.26,6.09-5.6,8.66
	c-1.2,1.35-2.55,2.55-4.04,3.45c-2.55,1.35-5.09,0.9-7.04-1.35c-1.2-1.2-2.1-2.85-2.85-4.34c-1.65-3.45-2.1-7.19-2.25-10.79
	c-0.15-1.65,0-3.3,0-4.94c-0.15-6.89,0.75-13.63,1.65-20.52c0.45-3.15,0.9-6.44,1.35-9.74c0-0.45,0-1.05-0.15-1.65
	c0,0,0-0.3-0.15-0.3c-0.15,0-0.6-0.15-0.75,0c-1.05,1.2-2.25,2.4-3.15,3.75c-3.15,4.49-5.54,9.44-7.49,14.53
	c-2.85,8.09-4.64,16.33-5.54,24.72c-0.3,2.4-0.45,4.64-0.75,6.89c-0.15,1.5-1.05,2.4-2.4,2.55c-1.05,0.3-2.55-0.3-3-1.5
	c-0.6-1.2-0.9-2.55-1.2-3.9c-0.6-3.45-1.05-7.04-1.5-10.49c-1.2-9.29-2.4-18.58-3.59-27.71c-0.45-3.15-1.05-6.29-1.8-9.29
	c0-0.75-0.45-1.35-0.6-1.95c-0.3-0.45-1.05-0.6-1.5-0.3c-0.45,0.45-0.9,1.05-1.35,1.5c-1.8,2.25-3.15,4.79-4.34,7.49
	c-3.15,7.94-5.69,16.33-6.59,24.87c-0.45,4.94-0.9,9.89,0.45,14.68c0.15,0.9,0.3,1.95,0.3,2.85c0,1.95-0.9,3.15-2.4,3.45
	c-1.35,0.15-2.4-0.6-3-2.25c0-0.15-0.15-0.3-0.15-0.45c-2.1-7.49-4.49-15.13-6.44-22.77c-1.35-5.54-2.1-11.09-2.4-16.63
	c0-1.8,0-3.6,0.15-5.39c0-0.75,0.15-1.35,0.45-1.95c0.45-1.65,1.65-2.4,3-2.4c1.35,0,2.55,0.75,3,2.4c0.45,1.8,0.75,3.75,0.9,5.54
	c0.75,5.24,1.35,10.34,2.1,15.58c0,0.15,0.45,0.45,0.75,0.6c0.15-0.15,0.3-0.3,0.45-0.6c0-0.15,0-0.45,0.15-0.75
	c1.35-5.09,2.7-10.34,4.34-15.43c1.35-3.75,3.15-7.19,5.09-10.79c0.75-1.65,2.1-3.15,3.45-4.34c2.7-2.25,5.84-2.1,8.09,0.6
	c1.05,1.35,2.1,3,2.55,4.64c1.05,3.45,2.1,7.04,2.7,10.64c0.75,5.09,1.2,10.04,1.8,15.13c0,0.45,0,0.75,0.15,1.2
	c0,0.15,0.3,0.45,0.45,0.3c0.3,0,0.6-0.15,0.6-0.45c0.75-2.25,1.35-4.49,2.1-6.59c1.8-5.69,4.2-11.09,7.04-16.18
	c1.8-2.85,3.75-5.39,6.14-7.64c0.9-0.9,1.95-1.65,3-2.25c3.45-1.8,7.04-0.6,8.39,3.15c0.45,1.35,0.6,2.85,0.75,4.34
	c0.3,3.6-0.45,7.04-1.05,10.64c-0.75,5.39-1.8,10.79-2.55,16.18c-0.6,3.9-0.9,7.94-1.2,11.83c-0.15,3,0.3,5.99,1.35,8.84
	c1.2,3.3,2.55,3.45,4.94,0.75c1.65-1.8,2.55-4.04,3.45-6.44c0.9-2.25,1.8-4.49,2.85-6.74c0.19-0.39,0.41-0.71,0.64-0.98
	c-1.95-9.76-1.58-19.52,0.86-29.13c0.75-3,1.95-5.69,3.45-8.39c1.05-1.95,2.4-3.6,4.04-4.94c5.24-4.49,11.68-3.15,14.98,2.7
	c1.35,2.7,1.8,5.39,2.1,8.39c0,0.6,0,1.35,0,1.95c-0.3,7.79-2.4,15.13-6.59,21.72c-1.2,1.65-2.55,3.3-4.04,4.64
	c-1.65,1.5-3.6,2.55-5.84,3c-2.4,0.45-2.55,0.6-1.65,3.15c0.75,2.1,1.5,4.34,2.4,6.44c1.05,2.1,2.55,3.9,4.5,5.24
	c1.8,1.2,3.59,1.8,5.84,1.2c1.65-0.45,3-1.35,3.75-3c0.6-1.35,1.2-2.7,1.95-4.04c0.6-0.9,1.65-1.2,2.55-0.9
	C460.22,208.55,460.67,209.45,460.67,210.65z M438.65,195.22c1.8-0.15,3.15-1.05,4.34-2.1c1.65-1.5,3-3.3,3.89-5.24
	c2.7-5.39,3.9-11.09,3.9-17.08c-0.15-1.65-0.45-3.45-1.05-5.24c-0.3-1.05-1.05-2.1-1.95-3c-0.9-1.05-2.1-1.05-3.29-0.45
	c-1.35,0.75-2.4,1.95-3.15,3.15c-1.35,2.25-2.25,4.64-3,7.19c-1.35,5.09-1.8,10.19-2.1,16.18c0,1.2,0.15,3.15,0.3,4.94
	C436.7,194.77,437.45,195.22,438.65,195.22z"/>
</svg>
