<?xml version="1.0" standalone="no"?>
<!DOCTYPE svg PUBLIC "-//W3C//DTD SVG 20010904//EN"
 "http://www.w3.org/TR/2001/REC-SVG-20010904/DTD/svg10.dtd">
<svg version="1.0" xmlns="http://www.w3.org/2000/svg"
 width="296.000000pt" height="296.000000pt" viewBox="0 0 296.000000 296.000000"
 preserveAspectRatio="xMidYMid meet">
<metadata>
Created by potrace 1.14, written by Peter Selinger 2001-2017
</metadata>
<g transform="translate(0.000000,296.000000) scale(0.100000,-0.100000)"
fill="#000000" stroke="none">
<path d="M1742 2949 c-133 -23 -283 -90 -392 -174 -84 -64 -219 -211 -279
-303 -30 -45 -56 -82 -59 -82 -2 0 -16 8 -30 19 -43 30 -118 51 -186 51 -171
0 -367 -118 -481 -290 -130 -195 -238 -518 -292 -870 -24 -161 -24 -500 0
-625 78 -400 261 -602 599 -661 266 -46 496 47 644 262 21 30 40 54 43 54 4 0
14 -22 24 -49 26 -75 77 -142 131 -176 42 -25 62 -31 128 -34 42 -2 91 2 108
8 26 9 44 6 108 -15 143 -48 269 -24 363 69 31 31 43 38 47 27 10 -29 73 -79
108 -86 91 -17 172 22 290 140 82 83 224 256 209 256 -14 0 -56 -27 -203 -132
-192 -137 -243 -165 -276 -150 -36 16 -49 70 -44 177 3 51 1 100 -4 109 -15
27 -45 38 -70 25 -31 -16 -35 -24 -43 -88 -14 -116 -96 -227 -186 -251 -85
-23 -189 9 -248 76 -62 71 -76 131 -75 319 1 139 4 173 27 259 52 194 135 326
205 326 18 0 44 -13 70 -35 l41 -36 -49 -100 c-92 -188 -114 -378 -58 -488 42
-80 102 -88 126 -15 7 21 20 144 28 272 7 129 17 246 20 260 4 15 26 66 51
113 110 216 281 316 455 265 76 -22 155 -94 191 -174 59 -131 69 -232 54 -557
-10 -196 -7 -198 65 -46 49 102 62 186 55 336 -10 186 -62 337 -148 430 l-40
44 10 153 c37 530 -104 996 -368 1214 -82 69 -199 129 -298 155 -90 24 -288
33 -371 18z m245 -140 c355 -49 570 -320 639 -807 16 -116 21 -489 6 -504 -5
-5 -36 -4 -73 1 -192 27 -387 -87 -506 -297 -1 -2 -23 9 -49 24 -96 57 -203
27 -279 -76 -78 -106 -144 -312 -165 -512 -16 -151 2 -290 55 -410 6 -15 2
-18 -19 -18 -124 0 -197 224 -159 484 13 89 13 103 0 132 -28 57 -106 55 -128
-4 -6 -15 -15 -64 -20 -110 -25 -223 -167 -445 -334 -523 -95 -45 -183 -55
-299 -36 -213 37 -324 114 -412 290 -120 237 -134 635 -39 1063 39 170 88 313
160 461 83 170 149 244 269 303 120 60 218 63 286 11 l24 -19 -28 -64 c-194
-436 -270 -685 -283 -933 -7 -133 8 -231 47 -312 45 -94 92 -130 156 -119 93
18 115 112 134 576 22 540 54 711 165 898 69 117 99 157 194 255 139 144 281
221 456 247 75 11 116 11 202 -1z m-1159 -1434 c-5 -110 -12 -234 -17 -275 -7
-74 -8 -74 -21 -45 -20 43 -18 279 2 370 21 92 39 158 42 154 1 -2 -2 -94 -6
-204z m1182 -626 c-11 -204 -18 -269 -30 -269 -33 0 -53 186 -30 275 16 60 62
187 66 182 3 -2 0 -87 -6 -188z"/>
<path d="M1370 1348 c-40 -66 -34 -149 12 -164 48 -15 81 74 56 151 -17 52
-41 56 -68 13z"/>
<path d="M2245 726 c-34 -51 -1 -140 39 -107 19 16 22 101 4 119 -17 17 -26
15 -43 -12z"/>
</g>
</svg>
