<svg width="50"
     height="50"
     viewBox="0 0 50 50"
     fill="none"
     xmlns="http://www.w3.org/2000/svg">
  <path fill-rule="evenodd"
        clip-rule="evenodd"
        d="M24.7065 12.6118C24.9369 12.4036 25.2787 12.4049 25.5076 12.6149L39.4593 25.4151C39.586 25.5313 39.5986 25.7329 39.4875 25.8653L25.1054 13.0945L10.9414 25.8963C10.814 26.0115 10.6214 25.9968 10.5112 25.8635C10.4011 25.7302 10.4151 25.5288 10.5426 25.4136L14.7678 21.5947V15.4788C14.7678 15.3026 14.9044 15.1598 15.0728 15.1598H17.8787C18.0471 15.1598 18.1837 15.3026 18.1837 15.4788V18.5074L24.7065 12.6118ZM17.5737 19.0587V15.7978H15.3778V21.0434L17.5737 19.0587ZM24.7155 15.7548C24.943 15.5574 25.2732 15.5591 25.4989 15.7588L35.9009 24.965C36.0379 25.0862 36.1169 25.2643 36.1169 25.452V37.9046C36.1169 38.257 35.8438 38.5426 35.5069 38.5426H28.0347C27.6978 38.5426 27.4248 38.257 27.4248 37.9046V31.7798H22.7585V37.9046C22.7585 38.257 22.4854 38.5426 22.1485 38.5426H14.4933C14.1565 38.5426 13.8834 38.257 13.8834 37.9046L14.1039 24.9629L24.7155 15.7548ZM25.1049 16.2459L14.4933 25.4539V37.9046H22.1485V31.7798C22.1485 31.4274 22.4216 31.1418 22.7585 31.1418H27.4248C27.7616 31.1418 28.0347 31.4274 28.0347 31.7798V37.9046H35.5069V25.452L25.1049 16.2459Z"
        fill="#040403" />
  <path fill-rule="evenodd"
        clip-rule="evenodd"
        d="M24.4208 12.2665C24.8161 11.9092 25.4028 11.9114 25.7956 12.2718L39.7473 25.072C40.0553 25.3546 40.086 25.8449 39.8158 26.1671C39.8028 26.1827 39.7887 26.1973 39.7737 26.2109C39.0753 26.8447 38.1972 26.8678 37.4828 26.6914C37.1507 26.6094 36.8321 26.4796 36.5536 26.3281V37.905C36.5536 38.5098 36.0849 39 35.5068 39H28.0346C27.4564 39 26.9877 38.5098 26.9877 37.905V32.2372H23.1952V37.905C23.1952 38.5098 22.7265 39 22.1484 39H14.4932C13.9151 39 13.4464 38.5098 13.4464 37.905V37.8969L13.4464 37.8969L13.6483 26.0499C13.3725 26.2796 13.0553 26.4995 12.7158 26.6594C12.3364 26.8381 11.9015 26.9551 11.4517 26.8998C10.992 26.8433 10.5577 26.6116 10.1865 26.1698C10.1845 26.1675 10.1825 26.1651 10.1806 26.1627C9.91266 25.8385 9.94681 25.3484 10.2568 25.0682L10.5425 25.414L10.2568 25.0682L14.3308 21.3861V15.4792C14.3308 15.0507 14.663 14.7033 15.0727 14.7033H17.8786C18.2883 14.7033 18.6205 15.0507 18.6205 15.4792V17.509L24.4208 12.2665ZM11.5109 25.9859C11.5252 25.9883 11.5394 25.9904 11.5537 25.9921C11.7964 26.022 12.068 25.9622 12.357 25.8261C12.943 25.55 13.4857 25.0142 13.7725 24.6653C13.7885 24.6459 13.806 24.6279 13.8248 24.6116L24.4364 15.4036C24.827 15.0647 25.3936 15.0676 25.781 15.4104L36.183 24.6165C36.3634 24.7762 36.4852 24.9934 36.5321 25.2314C36.7658 25.4318 37.1936 25.681 37.6835 25.8019C38.0523 25.893 38.4135 25.9021 38.7327 25.795L25.1078 13.6966L11.5109 25.9859ZM15.8146 20.045L17.1367 18.85V16.2552H15.8146V20.045ZM14.9301 25.669V37.4481H21.7115V31.7802C21.7115 31.1755 22.1802 30.6852 22.7584 30.6852H27.4246C28.0028 30.6852 28.4715 31.1755 28.4715 31.7802V37.4481H35.0699V25.6644L25.102 16.8425L14.9301 25.669Z"
        fill="#040403" />
</svg>