<svg width="50"
     height="50"
     viewBox="0 0 50 50"
     fill="none"
     xmlns="http://www.w3.org/2000/svg">
  <path fill-rule="evenodd"
        clip-rule="evenodd"
        d="M23.4297 36.2496C29.4167 36.2496 35.6247 31.2498 35.6247 23.7242C35.6247 16.5795 29.4167 10.9523 23.4297 10.9523C16.2499 11.2506 11.25 16.8753 11.25 23.7501C11.25 29.9972 14.9999 35.6246 23.4297 36.2496ZM23.4297 37.4484C30.8468 37.4484 36.8595 31.3039 36.8595 23.7242C36.8595 16.1445 30.8468 10 23.4297 10C16.0127 10 10 16.1445 10 23.7242C10 31.3039 16.0127 37.4484 23.4297 37.4484Z"
        fill="#040403" />
  <path fill-rule="evenodd"
        clip-rule="evenodd"
        d="M33.6015 32.1543L39.7111 38.0301L39.8565 38.2731L38.6726 38.7478C39.8335 38.2815 39.8565 38.2731 39.8565 38.2731L39.8574 38.2754L39.8584 38.2779L39.8604 38.2831L39.8648 38.2948L39.875 38.3228C39.8825 38.3436 39.8906 38.3685 39.8999 38.3973C39.9184 38.4548 39.9385 38.5289 39.9587 38.6172C39.9986 38.7918 40.0025 39.0851 39.9987 39.3693C39.9992 39.6851 39.7122 39.8865 39.7122 39.8865C39.7122 39.8865 39.5826 40.0656 38.9561 39.9741C38.6549 39.9301 38.4042 39.8483 38.2304 39.7764C38.1418 39.7397 38.0683 39.7061 38.0127 39.6775C37.9848 39.6631 37.9611 39.6509 37.9418 39.6401L37.9161 39.6258L37.9058 39.6199L37.9013 39.6172L37.8992 39.616C37.8992 39.616 37.8972 39.6329 38.5403 38.5593L37.8972 39.6148L37.771 39.5404L32.3247 33.8323L33.6015 32.1543ZM38.4587 38.7617C38.4793 38.7676 38.5006 38.7724 38.5216 38.7754C38.5858 38.7848 38.5899 38.7806 38.6216 38.7481L38.6257 38.7438C38.7126 38.6551 38.7447 38.5791 38.7563 38.5162L33.6283 33.6115L33.4213 33.8323L38.4587 38.7617Z"
        fill="#040403" />
</svg>